<svg height="512" width="512" xmlns="http://www.w3.org/2000/svg"><path d="m424.7277222 238.0618896h-52.3676147v-25.697998h-23.2711182v-57.1100464c27.9407654-10.2701263 51.7779236 7.9856567 57.2382812 28.5015259h18.3961792c36.1433411 1.6701202 35.9340515 52.3909607.0042725 54.3065185zm-262.8961182 20.8442994-7.1113892 47.9997559h31.4577637c43.1625366-2.3695679 41.9445801-62.1154175 0-64.0010376h-20.7974854c-4.359375-13.8153076-13.6642456-23.8081055-25.744873-30.5410156v46.5422974h22.1959839zm315.9776611-131.0147095c-97.8168335-170.3613281-344.5717163-170.5621948-443.0927734-.3607178s24.4139404 384.3093262 220.7518311 384.4691162c196.3378906.1598511 320.1578369-213.7470703 222.3409423-384.1083984zm-292.5040893 290.1685791 13.30896-89.8247681 109.5004272-35.5831299 12.0872803 81.571228zm117.2371826-205.7004395h-93.0889893v-67.2913818l46.5466309-29.083374 46.5423584 29.083374zm78.0692139 252.0569458-30.4439697-205.510376h22.1925049v-12.1170654h52.3676147c47.3716431-2.270752 48.487915-68.9682617 0-71.7609863h-12.328064c-11.3234253-24.835144-36.2303467-36.7653809-63.3106689-29.0444946v-26.7130127l-93.0889893-58.1800537-93.0932007 58.1800537v93.0932617h-7.1654663c-10.4970093-9.1533813-24.1295776-14.5482178-38.6524658-14.5482178-79.3607178 3.5865479-77.546814 115.074646 0 117.8175049h36.3383179l1.2930298-8.7271729-37.6313477-.000061c-65.8723755-2.1085815-66.9887085-97.7363281 0-100.3630371 8.3128052 0 15.4960938 2.0960083 22.5467529 5.8209839h16.0905151c6.7329102 5.8683472 12.1898193 13.2658081 15.7352905 21.8137817h14.7165527c54.4265747 2.9259644 53.9700928 79.3397217 0 81.4555054h-32.7507935l-22.0820923 149.0471191c-107.2229613-64.6869506-155.4614866-209.3944702-85.2858885-330.6273803 93.4830322-161.4980469 327.619812-161.3074341 420.4346924.3422241 69.5072021 121.0561523 21.0697021 265.2815552-85.8823242 330.0214233z" fill="#dde4e6" /></svg>